<svg width="20" height="23" viewBox="0 0 20 23" fill="none" xmlns="http://www.w3.org/2000/svg">
<path d="M0.965933 0.13328C0.618731 0.297657 0.298237 0.608641 0.129088 0.955166L0 1.22172V8.92968V16.6376L0.133539 16.8775C0.378361 17.3218 0.801234 17.5839 1.33984 17.6239C1.64253 17.6461 1.66924 17.6417 1.77607 17.535C1.91406 17.3973 1.92296 17.2418 1.80723 17.0997C1.74491 17.0197 1.66479 16.993 1.42887 16.9664C1.07722 16.9309 0.827942 16.7887 0.721111 16.5577C0.64989 16.4155 0.645439 15.7935 0.645439 8.92079C0.645439 1.73707 0.64989 1.43497 0.730014 1.26171C1.11283 0.426493 2.31468 0.426493 2.69749 1.26615C2.77761 1.43497 2.78206 1.86146 2.78206 11.5864C2.78206 18.9167 2.79542 21.7822 2.83103 21.9288C2.92005 22.2709 3.0625 22.3553 3.9394 22.5641C4.36228 22.6618 4.73619 22.7462 4.77625 22.7462C4.82076 22.7462 5.20802 22.6618 5.64425 22.5597L6.43658 22.3731L7.22446 22.5597C7.65624 22.6618 8.04796 22.7462 8.09247 22.7462C8.13698 22.7462 8.52425 22.6618 8.95157 22.5597L9.7261 22.3731L10.554 22.5685L11.3775 22.764L12.0096 22.613C13.1313 22.3464 12.9577 22.3509 13.848 22.5685C14.7427 22.7818 14.6136 22.7862 15.7176 22.5241L16.3496 22.3731L17.1242 22.5597C17.5515 22.6618 17.9388 22.7462 17.9877 22.7462C18.1435 22.7462 19.4967 22.4042 19.6391 22.3286C19.7237 22.2887 19.8261 22.1776 19.8751 22.0799C19.9641 21.9066 19.9641 21.8355 19.9641 11.7374C19.9641 0.64418 19.9774 1.30613 19.7193 0.857428C19.5546 0.581984 19.2385 0.288771 18.9492 0.146606L18.6955 0.022213L9.97092 0.00888634L1.24636 0L0.965933 0.13328ZM18.651 0.741919C18.8602 0.852985 19.0738 1.07067 19.1896 1.28836C19.2697 1.43941 19.2741 1.79038 19.2875 11.6041C19.2964 21.2669 19.2919 21.7644 19.2207 21.7822C19.1762 21.7955 18.878 21.8666 18.5575 21.9421L17.9744 22.0799L17.2488 21.9021C16.8482 21.8044 16.4387 21.7244 16.3407 21.7244C16.2428 21.7244 15.8288 21.8044 15.4238 21.9021L14.6804 22.0799L13.9504 21.9021C13.5498 21.8044 13.1358 21.7244 13.0379 21.7244C12.9355 21.7244 12.5215 21.8044 12.1164 21.9021L11.382 22.0799L10.6386 21.9021C10.2335 21.8044 9.81957 21.7244 9.7261 21.7244C9.63262 21.7244 9.22755 21.8044 8.82248 21.9021L8.08357 22.0799L7.34465 21.9021C6.93513 21.8044 6.52561 21.7244 6.43213 21.7244C6.33865 21.7244 5.93359 21.8044 5.52852 21.9021L4.7896 22.0799L4.12191 21.9199L3.44976 21.76V11.5686C3.44976 1.63489 3.44976 1.36833 3.36519 1.13287C3.31622 0.999592 3.2361 0.83077 3.18268 0.755247L3.08475 0.621967L10.7811 0.630854L18.4729 0.64418L18.651 0.741919Z" fill="#E6FFF2"/>
<path d="M16.2385 2.47453C16.2073 2.48341 16.1806 2.53672 16.1806 2.59004C16.1806 2.67 16.1361 2.7011 15.9224 2.7633C15.4951 2.88769 15.2458 3.20756 15.2458 3.62072C15.2458 4.02056 15.4595 4.296 15.9313 4.48704L16.1806 4.59366V5.05569V5.51773L16.0381 5.49107C15.958 5.47774 15.8067 5.40222 15.7043 5.33114C15.4862 5.1712 15.3215 5.16232 15.228 5.29559C15.1256 5.43776 15.139 5.57104 15.2725 5.73097C15.4194 5.90423 15.5752 5.9842 15.9002 6.05528C16.1049 6.10415 16.1628 6.13525 16.1717 6.21078C16.1984 6.40181 16.4922 6.36627 16.4922 6.17524C16.4922 6.12192 16.5456 6.0775 16.6613 6.04196C16.9551 5.94866 17.1421 5.79317 17.2667 5.54882C17.5471 4.98905 17.3068 4.39818 16.7014 4.1494L16.4922 4.06499V3.65182C16.4922 3.25643 16.4966 3.2431 16.5946 3.2431C16.648 3.24754 16.7414 3.2742 16.8038 3.30974C17.0486 3.44746 17.2934 3.3364 17.2934 3.08317C17.2934 2.9099 16.9551 2.71443 16.6391 2.70999C16.5233 2.70999 16.4922 2.69222 16.4922 2.62113C16.4922 2.55005 16.3631 2.4301 16.3052 2.44787C16.2963 2.44787 16.2652 2.4612 16.2385 2.47453ZM16.1806 3.59851V3.95836L16.047 3.88728C15.7844 3.754 15.7577 3.43858 15.9936 3.31418C16.0604 3.2742 16.1272 3.24754 16.1494 3.2431C16.1672 3.2431 16.1806 3.40304 16.1806 3.59851ZM16.7593 4.92686C16.8394 5.07791 16.8127 5.28227 16.6925 5.39778C16.4877 5.60214 16.4477 5.55327 16.4477 5.109V4.70473L16.5812 4.77581C16.6524 4.81135 16.7325 4.88243 16.7593 4.92686Z" fill="#E6FFF2"/>
<path d="M5.06558 2.66559L4.9632 2.70558V4.34491C4.9632 5.55775 4.97655 5.99312 5.01661 6.03311C5.08783 6.10419 6.40542 6.10419 6.61463 6.03755C7.06421 5.8865 7.30458 5.27342 7.13988 4.69143C7.09092 4.51817 6.91287 4.30048 6.78823 4.25606C6.73927 4.24273 6.75707 4.20274 6.8639 4.09168C7.10427 3.85178 7.16659 3.42084 7.01525 3.0832C6.90841 2.84774 6.74817 2.72779 6.47219 2.67004C6.20511 2.61228 5.20357 2.61228 5.06558 2.66559ZM6.36981 3.30089C6.5078 3.46527 6.51225 3.6874 6.37426 3.84733C6.28078 3.95396 6.23182 3.96728 5.92913 3.9895L5.58638 4.01171V3.57633V3.1454L5.92468 3.16317C6.23182 3.1765 6.27633 3.18982 6.36981 3.30089ZM6.37871 4.52706C6.63243 4.66478 6.61463 5.36227 6.352 5.50443C6.29859 5.53109 6.10718 5.5533 5.92468 5.5533H5.58638V4.99353V4.42932L5.93803 4.45597C6.12944 4.4693 6.32975 4.5004 6.37871 4.52706Z" fill="#E6FFF2"/>
<path d="M7.73654 2.66555L7.63416 2.70553V4.34931C7.63416 5.93088 7.63861 5.99752 7.71873 6.04195C7.85672 6.11303 8.10154 6.09526 8.18167 6.00641C8.24844 5.93088 8.25734 5.75318 8.25734 4.37152C8.25734 3.19422 8.24398 2.79883 8.19947 2.74108C8.1327 2.64778 7.87453 2.6078 7.73654 2.66555Z" fill="#E6FFF2"/>
<path d="M8.96919 2.65225C8.79559 2.71444 8.79114 2.7722 8.79114 4.35377C8.79114 5.67323 8.80004 5.90425 8.86236 5.98866C8.92913 6.08195 8.95139 6.0864 9.81494 6.0864H10.7052L10.7364 5.962C10.772 5.81984 10.7586 5.68656 10.6963 5.60659C10.6607 5.57105 10.4737 5.55328 10.0331 5.55328H9.41432V4.13164V2.71L9.29859 2.66557C9.1784 2.6167 9.07602 2.61226 8.96919 2.65225Z" fill="#E6FFF2"/>
<path d="M11.2038 2.69223L11.1058 2.75887V4.35377C11.1058 5.74431 11.1147 5.95756 11.1771 6.01531C11.2349 6.07307 11.3818 6.0864 12.1029 6.0864C13.0243 6.0864 13.0644 6.07751 13.0644 5.85094C13.0644 5.56661 13.0377 5.55328 12.3522 5.55328H11.729V4.1583C11.729 2.76331 11.729 2.75887 11.6311 2.69223C11.5777 2.65225 11.4797 2.62115 11.4174 2.62115C11.3551 2.62115 11.2572 2.65225 11.2038 2.69223Z" fill="#E6FFF2"/>
<path d="M4.65158 9.82709C4.46463 10.027 4.58482 10.3202 4.88305 10.3735C4.96318 10.3869 6.96626 10.3913 9.33435 10.3869L13.6388 10.3735L13.7367 10.2758C13.8569 10.1558 13.8658 9.9426 13.7545 9.81821C13.6744 9.72936 13.6254 9.72936 9.20972 9.72936H4.74506L4.65158 9.82709Z" fill="#E6FFF2"/>
<path d="M14.8494 9.84487C14.7292 10.0004 14.7336 10.0981 14.8627 10.2492L14.9696 10.3735H16.1803H17.3911L17.4979 10.2492C17.627 10.0981 17.6314 10.0004 17.5113 9.84487L17.4222 9.72937H16.1803H14.9384L14.8494 9.84487Z" fill="#E6FFF2"/>
<path d="M4.67372 12.5948C4.6114 12.6526 4.56244 12.7548 4.56244 12.817C4.56244 12.8792 4.6114 12.9814 4.67372 13.0391L4.78055 13.1502H9.18734C11.6089 13.1502 13.6253 13.1368 13.6654 13.1235C13.79 13.0747 13.8701 12.8614 13.8211 12.7237C13.7232 12.4749 13.9725 12.4882 9.2007 12.4838H4.78055L4.67372 12.5948Z" fill="#E6FFF2"/>
<path d="M14.8673 12.5948C14.805 12.6526 14.756 12.7548 14.756 12.817C14.756 12.8792 14.805 12.9814 14.8673 13.0391L14.9742 13.1502H16.1805H17.3868L17.4936 13.0391C17.5559 12.9814 17.6049 12.8792 17.6049 12.817C17.6049 12.7548 17.5559 12.6526 17.4936 12.5948L17.3868 12.4838H16.1805H14.9742L14.8673 12.5948Z" fill="#E6FFF2"/>
<path d="M4.66059 15.3848C4.48254 15.5759 4.57601 15.8646 4.83864 15.9268C4.89651 15.9402 6.89959 15.9446 9.28994 15.9402L13.6389 15.9268L13.7368 15.8291C13.857 15.7092 13.8659 15.4959 13.7546 15.3715C13.6745 15.2827 13.6255 15.2827 9.21427 15.2827H4.75407L4.66059 15.3848Z" fill="#E6FFF2"/>
<path d="M14.8495 15.3982C14.7961 15.4648 14.756 15.5448 14.756 15.5759C14.756 15.7047 14.8673 15.8602 14.992 15.9046C15.17 15.9624 17.1909 15.9624 17.369 15.9046C17.4936 15.8602 17.6049 15.7047 17.6049 15.5759C17.6049 15.5448 17.5648 15.4648 17.5114 15.3982L17.4224 15.2826H16.1805H14.9385L14.8495 15.3982Z" fill="#E6FFF2"/>
<path d="M4.67372 18.1481C4.6114 18.2059 4.56244 18.3081 4.56244 18.3703C4.56244 18.4325 4.6114 18.5347 4.67372 18.5924L4.78055 18.7035H9.18734C11.6089 18.7035 13.6253 18.6901 13.6654 18.6768C13.701 18.659 13.7633 18.5924 13.7989 18.5258C13.8835 18.3658 13.8167 18.157 13.6609 18.0859C13.5808 18.0504 12.3478 18.0371 9.16509 18.0371H4.78055L4.67372 18.1481Z" fill="#E6FFF2"/>
</svg>
