<svg width="52" height="52" viewBox="0 0 52 52" fill="none" xmlns="http://www.w3.org/2000/svg">
<rect x="0.25" y="0.25" width="51.5" height="51.5" rx="5.75" stroke="#EF0290" stroke-width="0.5"/>
<path d="M40.9477 31.4732C40.8147 32.1528 40.7223 32.8437 40.5397 33.5097C40.055 35.2847 39.1193 36.7961 37.7937 38.0598C36.432 39.3598 34.8313 40.2144 32.9961 40.6167C31.7381 40.8917 30.4734 40.919 29.2063 40.6985C27.1029 40.3326 25.2948 39.3894 23.7843 37.8712C23.5926 37.6802 23.401 37.6121 23.1372 37.6143C20.9661 37.6257 18.7951 37.6234 16.624 37.6189C14.9759 37.6143 13.7698 36.3552 13.8352 34.6961C13.8622 33.9915 14.1621 33.396 14.6581 32.9006C14.7077 32.8506 14.7573 32.8051 14.8046 32.7551C14.8091 32.7506 14.8091 32.7369 14.8091 32.7278C13.488 31.5187 13.497 29.6277 14.8091 28.43C13.479 27.2118 13.5038 25.3208 14.8226 24.1185C14.3492 23.6912 14.0088 23.1821 13.8848 22.5434C13.5534 20.8275 14.7978 19.2683 16.5315 19.2365C17.032 19.2274 17.5325 19.2343 18.0443 19.2343C17.4649 17.9751 17.4581 17.391 18.0443 16.1273C17.9271 16.1273 17.8211 16.1273 17.7174 16.1273C16.2655 16.1273 14.8159 16.1364 13.364 16.1251C11.619 16.1114 10.3745 14.5796 10.6834 12.85C10.9043 11.6159 12.018 10.6704 13.3054 10.6431C13.9276 10.6295 14.5498 10.6408 15.1698 10.6408C19.3745 10.6408 23.5791 10.6385 27.7837 10.6431C29.4566 10.6454 30.6898 11.9477 30.5635 13.6205C30.5297 14.0614 30.3336 14.4887 30.2073 14.9387C30.2704 14.9387 30.3764 14.9387 30.4801 14.9387C31.932 14.9387 33.3817 14.9296 34.8335 14.9409C36.5695 14.9546 37.8095 16.4592 37.5209 18.1842C37.3112 19.4365 36.1975 20.3957 34.8967 20.4252C34.3872 20.4366 33.8754 20.4275 33.3478 20.4275C33.438 20.7366 33.58 20.9229 33.8822 21.0229C37.3563 22.1957 39.595 24.5753 40.6141 28.1141C40.7516 28.5868 40.7967 29.0868 40.8846 29.5755C40.9027 29.6709 40.9252 29.7664 40.9477 29.8618C40.9477 30.4005 40.9477 30.9369 40.9477 31.4732ZM30.8408 39.653C35.6542 39.628 39.7033 35.8506 39.7483 30.7528C39.7912 25.9004 35.9901 21.7934 30.9197 21.7571C26.1086 21.7207 22.0551 25.5526 22.0122 30.6437C21.9671 35.5029 25.775 39.5576 30.8408 39.653ZM20.637 11.8318C20.1252 11.8318 19.6112 11.8318 19.0994 11.8318C17.2259 11.8318 15.3524 11.8272 13.4767 11.834C12.2773 11.8386 11.5221 12.8773 11.9256 13.95C12.1646 14.5818 12.7372 14.9387 13.5286 14.9387C18.2427 14.9387 22.9569 14.9387 27.671 14.9387C27.7409 14.9387 27.8085 14.9409 27.8784 14.9341C28.8817 14.8614 29.5377 14.0341 29.3529 13.0773C29.2041 12.3113 28.5773 11.8318 27.7093 11.8318C25.3534 11.8295 22.9952 11.8318 20.637 11.8318ZM27.6214 16.1296C26.9699 16.1296 26.3206 16.1296 25.669 16.1296C23.9331 16.1296 22.1971 16.1251 20.4611 16.1319C19.2753 16.1364 18.5245 17.1524 18.9078 18.2229C19.14 18.8706 19.7171 19.2365 20.522 19.2365C25.2362 19.2365 29.9503 19.2365 34.6645 19.2365C34.7344 19.2365 34.802 19.2388 34.8719 19.232C35.8751 19.157 36.5289 18.3297 36.3418 17.3728C36.1908 16.6092 35.564 16.1319 34.6938 16.1296C32.3356 16.1296 29.9796 16.1296 27.6214 16.1296ZM31.4631 20.5934C31.4653 20.5593 31.4653 20.5229 31.4676 20.4888C31.2579 20.4684 31.0482 20.432 30.8363 20.432C26.1425 20.4297 21.4463 20.4297 16.7525 20.4297C16.6736 20.4297 16.5947 20.4275 16.5158 20.4343C15.4922 20.5161 14.8362 21.3866 15.0661 22.3593C15.233 23.0707 15.8597 23.5344 16.6803 23.5344C18.8402 23.5389 21 23.5253 23.1598 23.5457C23.5723 23.5503 23.8699 23.4366 24.1765 23.1548C25.8268 21.6434 27.777 20.7957 29.9954 20.6002C30.4824 20.557 30.9738 20.5934 31.4631 20.5934ZM22.6593 24.739C22.657 24.739 22.639 24.7276 22.6209 24.7276C20.6099 24.7276 18.5989 24.7162 16.5879 24.7299C15.6839 24.7367 15.003 25.4367 15.012 26.289C15.0233 27.1481 15.6996 27.8186 16.6082 27.8277C18.0781 27.8413 19.5458 27.83 21.0157 27.8345C21.1713 27.8345 21.2389 27.7822 21.2863 27.639C21.39 27.3299 21.4847 27.014 21.629 26.7208C21.9559 26.0595 22.3076 25.4094 22.6593 24.739ZM22.5105 36.4211C22.5105 36.3802 22.5172 36.3552 22.5105 36.3416C21.9333 35.4461 21.4869 34.487 21.1826 33.4619C21.1645 33.4006 21.0473 33.3278 20.9752 33.3278C19.5052 33.321 18.0353 33.3028 16.5654 33.3301C15.5351 33.3483 14.8565 34.2233 15.0571 35.2052C15.2082 35.9416 15.8327 36.4257 16.6623 36.4279C18.5471 36.4325 20.4318 36.4302 22.3166 36.4302C22.382 36.4302 22.4473 36.4234 22.5105 36.4211ZM20.8715 32.1324C20.8715 31.0755 20.8715 30.0618 20.8715 29.0368C20.8805 29.0391 20.8624 29.03 20.8421 29.03C19.4218 29.0277 18.0037 29.0186 16.5834 29.0345C16.3444 29.0368 16.0897 29.1027 15.8732 29.205C15.2239 29.5096 14.9083 30.2005 15.0571 30.9141C15.2036 31.6187 15.8011 32.1074 16.5766 32.1278C17.1583 32.1437 17.74 32.1324 18.3216 32.1324C19.1693 32.1324 20.0147 32.1324 20.8715 32.1324Z" fill="#EF0290"/>
<path d="M31.4833 34.662C31.4473 35.237 31.2624 35.4961 30.8972 35.5143C30.5297 35.5325 30.3313 35.2711 30.2637 34.6597C29.6437 34.4893 29.0891 34.1779 28.769 33.5983C28.5796 33.2551 28.4714 32.8483 28.4082 32.4574C28.3496 32.096 28.6066 31.8324 28.9403 31.8006C29.2559 31.771 29.549 32.0097 29.5693 32.3733C29.6211 33.3824 30.8273 33.8143 31.6389 33.3051C32.0334 33.0574 32.2363 32.621 32.1507 32.2188C32.047 31.7256 31.6412 31.3574 31.1181 31.2915C30.6312 31.2301 30.1397 31.2096 29.6888 30.971C28.8208 30.5142 28.3361 29.68 28.4015 28.7073C28.4578 27.8777 29.1207 27.0436 29.9774 26.764C30.2096 26.689 30.3065 26.5959 30.2997 26.3368C30.2907 26.0004 30.5748 25.7481 30.8859 25.7527C31.1858 25.7572 31.4743 26.0027 31.4585 26.3209C31.445 26.6209 31.5848 26.6913 31.8238 26.7754C32.7053 27.0845 33.3546 27.9754 33.3636 28.8437C33.3681 29.2232 33.1629 29.4823 32.8338 29.5096C32.4708 29.5414 32.2341 29.3391 32.1867 28.9346C32.1259 28.405 31.8553 28.0482 31.3548 27.8845C30.8431 27.7163 30.3539 27.7823 29.9458 28.1527C29.6189 28.4482 29.4859 28.8277 29.6482 29.2596C29.8353 29.7573 30.2321 30.0028 30.7394 30.0414C31.3481 30.0891 31.932 30.1914 32.4302 30.5801C33.1246 31.121 33.4718 31.8347 33.341 32.7142C33.2035 33.637 32.6286 34.237 31.7742 34.5734C31.6795 34.6052 31.5848 34.6302 31.4833 34.662Z" fill="#EF0290"/>
<path d="M23.1802 30.7437C23.1802 29.4801 23.471 28.2869 24.0278 27.155C24.2059 26.7914 24.5351 26.6504 24.853 26.8004C25.1573 26.9436 25.252 27.2641 25.1235 27.6391C24.9003 28.2914 24.6162 28.9369 24.49 29.6096C24.1225 31.5938 24.6546 33.3643 25.9103 34.9189C26.4514 35.5916 27.1164 36.1166 27.8784 36.5144C27.9483 36.5507 28.0182 36.5871 28.0836 36.6326C28.3902 36.8394 28.4804 37.1667 28.3135 37.4576C28.1535 37.7417 27.8153 37.8349 27.4862 37.6667C25.8224 36.8212 24.5982 35.5484 23.834 33.8325C23.3988 32.8529 23.1869 31.821 23.1802 30.7437Z" fill="#EF0290"/>
<path d="M38.6095 30.6528C38.5757 31.9301 38.2826 33.1347 37.7167 34.2711C37.5521 34.6029 37.2342 34.7393 36.9321 34.612C36.6255 34.4825 36.5082 34.1461 36.6277 33.7847C36.8532 33.112 37.1463 32.4483 37.2725 31.7551C37.6355 29.7687 37.0899 28.0027 35.8296 26.4527C35.2907 25.7913 34.6347 25.2731 33.8794 24.8799C33.8275 24.8526 33.7734 24.8254 33.7238 24.7935C33.3811 24.5822 33.2729 24.2685 33.4307 23.964C33.5953 23.6503 33.938 23.5526 34.2987 23.7435C36.5713 24.9435 37.9782 26.8027 38.4539 29.355C38.5351 29.7823 38.5599 30.221 38.6095 30.6528Z" fill="#EF0290"/>
<path d="M31.7807 22.9389C32.1167 22.9366 32.3962 23.2048 32.3985 23.5298C32.403 23.8526 32.1234 24.1253 31.7898 24.1299C31.4493 24.1321 31.181 23.873 31.1788 23.5389C31.1765 23.2048 31.4426 22.9412 31.7807 22.9389Z" fill="#EF0290"/>
<path d="M29.9795 37.2666C30.3177 37.2689 30.5838 37.5348 30.5793 37.8689C30.5748 38.2007 30.3042 38.4598 29.9637 38.4576C29.63 38.453 29.3527 38.178 29.3572 37.8553C29.364 37.5303 29.6436 37.2643 29.9795 37.2666Z" fill="#EF0290"/>
</svg>
