<svg width="10" height="13" viewBox="0 0 10 13" fill="none" xmlns="http://www.w3.org/2000/svg">
<path d="M8.50001 4.66665H7.91668V3.49998C7.91668 1.88998 6.61001 0.583313 5.00001 0.583313C3.39001 0.583313 2.08334 1.88998 2.08334 3.49998V4.66665H1.50001C0.858343 4.66665 0.333344 5.19165 0.333344 5.83331V11.6666C0.333344 12.3083 0.858343 12.8333 1.50001 12.8333H8.50001C9.14168 12.8333 9.66668 12.3083 9.66668 11.6666V5.83331C9.66668 5.19165 9.14168 4.66665 8.50001 4.66665ZM5.00001 9.91665C4.35834 9.91665 3.83334 9.39165 3.83334 8.74998C3.83334 8.10831 4.35834 7.58331 5.00001 7.58331C5.64168 7.58331 6.16668 8.10831 6.16668 8.74998C6.16668 9.39165 5.64168 9.91665 5.00001 9.91665ZM6.80834 4.66665H3.19168V3.49998C3.19168 2.50248 4.00251 1.69165 5.00001 1.69165C5.99751 1.69165 6.80834 2.50248 6.80834 3.49998V4.66665Z" fill="white"/>
</svg>
