<svg xmlns="http://www.w3.org/2000/svg" viewBox="0 0 1227 239" width="1227" height="239">
	<style>
		tspan { white-space:pre }
		.shp0 { fill: #f06321 } 
		.shp1 { fill: #ae282e } 
		.shp2 { fill: #ffffff } 
		.shp3 { fill: #004a7f } 
		.shp4 { fill: none;stroke: #000000 } 
	</style>
	<path id="Layer" class="shp0" d="M25.5 225.98C-8.51 198.04 3.56 127.3 52.5 67.73C101.44 8.15 168.49 -17.42 202.5 10.52C236.51 38.46 224.44 109.2 175.5 168.77C126.56 228.35 59.51 253.92 25.5 225.98Z" />
	<path id="Layer" class="shp1" d="M44.58 205.07C15.5 178.33 27.71 117.89 71.89 69.86C116.07 21.82 175.28 4.62 204.35 31.36C233.43 58.1 221.22 118.54 177.04 166.57C132.86 214.61 73.65 231.81 44.58 205.07Z" />
	<path id="Layer" class="shp2" d="M92.04 135.8C69.92 210.52 40.27 232.59 28.21 234.28C61.19 246.92 93.58 232.77 105.66 224.12C100.4 223.89 98.75 220.37 98.59 218.64C88.06 210.03 121.38 148.06 139.36 118.15C152.75 102.04 144.61 94.21 141.76 90.59C132.01 80.09 112.36 92.33 106.27 94.78C55.32 115.28 54.66 126.36 62.31 126.35C91.81 118.93 94.28 128.76 92.04 135.8Z" />
	<path id="Layer" class="shp2" d="M135.3 78.07C129.05 71.43 133.28 57.33 144.76 46.53C156.24 35.73 170.57 32.37 176.82 39.02C183.07 45.66 178.85 59.77 167.37 70.56C155.89 81.36 141.56 84.72 135.3 78.07Z" />
	<path id="Layer" class="shp3" d="M266.5 59L234 176.5L275.5 176.5L307 59L266.5 59Z" />
	<path id="Layer" class="shp3" d="M379 83.5C403 79.5 405.67 92.5 404 99.5L444 99.5C446 90.5 444.83 81.83 442.5 77.5C434.1 57.1 392.67 58.33 373 61.5C336.6 65.5 318.54 91.2 313 103C286 160.5 325 175.17 349 177.5C413 180.7 435.33 149.5 438.5 133.5L398 133.5C389.6 153.1 371 153.5 366.5 153.5C347 153.5 344.5 140.33 345 133.5C345 99.1 367.67 85.83 379 83.5Z" />
	<path id="Layer" class="shp4" d="M266.5 59L234 176.5L275.5 176.5L307 59L266.5 59Z" />
	<path id="Layer" class="shp4" d="M379 83.5C403 79.5 405.67 92.5 404 99.5L444 99.5C446 90.5 444.83 81.83 442.5 77.5C434.1 57.1 392.67 58.33 373 61.5C336.6 65.5 318.54 91.2 313 103C286 160.5 325 175.17 349 177.5C413 180.7 435.33 149.5 438.5 133.5L398 133.5C389.6 153.1 371 153.5 366.5 153.5C347 153.5 344.5 140.33 345 133.5C345 99.1 367.67 85.83 379 83.5Z" />
	<path id="Layer" class="shp3" d="M482.5 59L450 176.5L491.5 176.5L523 59L482.5 59Z" />
	<path id="Layer" class="shp3" d="M595 83.5C619 79.5 621.67 92.5 620 99.5L660 99.5C662 90.5 660.83 81.83 658.5 77.5C650.1 57.1 608.67 58.33 589 61.5C552.6 65.5 534.54 91.2 529 103C502 160.5 541 175.17 565 177.5C629 180.7 651.33 149.5 654.5 133.5L614 133.5C605.6 153.1 587 153.5 582.5 153.5C563 153.5 560.5 140.33 561 133.5C561 99.1 583.67 85.83 595 83.5Z" />
	<path id="Layer" class="shp4" d="M482.5 59L450 176.5L491.5 176.5L523 59L482.5 59Z" />
	<path id="Layer" class="shp4" d="M595 83.5C619 79.5 621.67 92.5 620 99.5L660 99.5C662 90.5 660.83 81.83 658.5 77.5C650.1 57.1 608.67 58.33 589 61.5C552.6 65.5 534.54 91.2 529 103C502 160.5 541 175.17 565 177.5C629 180.7 651.33 149.5 654.5 133.5L614 133.5C605.6 153.1 587 153.5 582.5 153.5C563 153.5 560.5 140.33 561 133.5C561 99.1 583.67 85.83 595 83.5Z" />
	<path id="Layer" class="shp3" d="M733 59L692.5 59L661 178L701.5 178L733 59Z" />
	<path id="Layer" fill-rule="evenodd" class="shp3" d="M862 59C874.17 59.5 893.59 66.5 882 94.5C880.14 99 873.5 109.5 854 114C853.99 114.06 853.97 114.11 853.95 114.16C853.8 114.67 853.79 114.72 857 115C880 117 883 149.5 857 168C849 173.69 839.5 176.5 824.5 176.5L755 176.5L786 59L862 59ZM806.5 77.5L800 105.5L841.18 103.97C848.71 103.7 855.1 98.32 856.66 90.94C858.12 84.02 852.84 77.5 845.76 77.5L806.5 77.5ZM809.5 157.94L830.5 156.5C839.43 155.5 846.32 148.16 846.76 139.18L846.82 138C847.19 130.38 841.11 124 833.48 124L794.05 124L786 157.94L809.5 157.94Z" />
	<path id="Layer" fill-rule="evenodd" class="shp3" d="M924.32 115.52L899.82 115.52C900.65 110.19 907.22 98.12 926.82 92.52C935.15 91.02 954.32 88.62 964.32 91.02C970.32 91.69 982.32 96.72 982.32 111.52C982.65 114.19 982.32 123.22 978.32 138.02C975.32 146.69 969.22 166.12 968.82 174.52L944.82 174.52L946.32 164.02C941.48 167.85 929.72 175.62 921.32 176.02C906.32 178.69 877.82 177.02 883.82 149.02C884.48 142.52 892.02 128.62 916.82 125.02C924.82 124.19 943.92 122.52 956.32 122.52C959.48 116.69 961.92 104.82 946.32 104.02C939.98 103.52 926.72 105.12 924.32 115.52ZM953.82 137.52L927.32 137.52C919.82 137.85 905.72 142.42 909.32 158.02C909.82 160.35 914.92 164.32 931.32 161.52C936.82 160.35 949.02 153.92 953.82 137.52Z" />
	<path id="Layer" class="shp3" d="M1037.5 95.04L1013.5 95.04C1014.7 99.04 1000.33 151.38 993 177.04L1018.5 177.04C1018.9 168.25 1027.33 141.71 1031.5 129.54C1037.9 116.75 1047.5 111.88 1051.5 111.04C1072.3 104.65 1078.17 116.71 1078.5 123.54C1080.5 130.75 1069.67 162.21 1064 177.04L1088.5 177.04C1090.5 174.65 1099 140.38 1103 123.54C1107.4 107.54 1096.83 97.88 1091 95.04C1062.6 87.84 1041.83 101.38 1035 109.04L1037.5 95.04Z" />
	<path id="Layer" class="shp3" d="M1169 59L1146 59L1115 177L1139 176L1150 132.5L1182 177L1215 176L1179 129.5L1227 94.5L1198 94.5L1152.5 127L1169 59Z" />
</svg>